<svg height="480pt" viewBox="-12 0 480 480" width="480pt" xmlns="http://www.w3.org/2000/svg"><path fill="#ffffff" d="m160 224h112v16h-112zm0 0"/><path fill="#ffffff" d="m144 408h88v16h-88zm0 0"/><path fill="#ffffff" d="m144 288h128v16h-128zm0 0"/><path fill="#ffffff" d="m144 344h88v16h-88zm0 0"/><path fill="#ffffff" d="m416 40c-4.25 0-8.472656.683594-12.503906 2.03125-9.941406-23.273438-34.257813-36.988281-59.320313-33.453125s-44.636719 23.441406-47.75 48.558594c-2.746093-.757813-5.578125-1.140625-8.425781-1.136719-17.671875 0-32 14.328125-32 32s14.328125 32 32 32h64v24h-80c-4.417969 0-8 3.582031-8 8v32h-112v-88c0-4.417969-3.582031-8-8-8h-64v-40c0-4.417969-3.582031-8-8-8h-8v-32c0-4.417969-3.582031-8-8-8h-32c-4.417969 0-8 3.582031-8 8v32h-8c-4.417969 0-8 3.582031-8 8v88c0 4.417969 3.582031 8 8 8h64c4.417969 0 8-3.582031 8-8v-32h56v80h-40c-4.417969 0-8 3.582031-8 8v280c0 4.417969 3.582031 8 8 8h240c4.417969 0 8-3.582031 8-8v-146.167969l38.785156-46.207031c9.710938-11.617188 9.949219-28.449219.574219-40.339844-9.375-11.886718-25.796875-15.578125-39.359375-8.84375v-38.441406c0-4.417969-3.582031-8-8-8h-56v-24h80c4.417969 0 8-3.582031 8-8v-32h48c22.089844 0 40-17.910156 40-40s-17.910156-40-40-40zm-384-24h16v24h-16zm32 72h-10.214844c-3.621094-6.273438-11.003906-9.328125-18-7.453125-6.992187 1.871094-11.859375 8.210937-11.859375 15.453125s4.867188 13.582031 11.859375 15.453125c6.996094 1.875 14.378906-1.179687 18-7.453125h10.214844v24h-48v-72h48zm282.023438 160.800781c3.648437-4.464843 9.421874-6.621093 15.105468-5.644531s10.398438 4.941406 12.34375 10.367188c1.949219 5.429687.824219 11.484374-2.945312 15.851562l-5.136719 6.128906-24.519531-20.566406zm9.082031 38.960938-72 85.789062-24.511719-20.566406 72-85.792969zm-86.976563 94.070312-18.136718 6.257813 3.015624-18.945313zm59.871094-181.832031v45.34375l-86.800781 103.457031c-.933594 1.105469-1.546875 2.449219-1.765625 3.878907l-7.328125 46.074218c-.433594 2.769532.617187 5.5625 2.765625 7.363282 2.148437 1.800781 5.085937 2.347656 7.738281 1.433593l44.09375-15.199219c1.367187-.464843 2.582031-1.296874 3.511719-2.398437l37.785156-45.050781v119.097656h-224v-264zm88-96h-48v-18.214844c6.273438-3.621094 9.328125-11.003906 7.453125-18-1.871094-6.992187-8.210937-11.859375-15.453125-11.859375s-13.582031 4.867188-15.453125 11.859375c-1.875 6.996094 1.179687 14.378906 7.453125 18v18.214844h-64c-7.207031.03125-13.546875-4.761719-15.484375-11.703125-1.933594-6.945313 1.011719-14.324219 7.199219-18.027344 6.183594-3.699219 14.082031-2.808593 19.285156 2.179688 2.464844 2.347656 6.144531 2.878906 9.171875 1.320312 3.027344-1.554687 4.742187-4.855469 4.269531-8.226562-.277344-1.835938-.425781-3.6875-.441406-5.542969.085938-20.261719 15.304688-37.261719 35.4375-39.570312 20.128906-2.3125 38.808594 10.792968 43.484375 30.507812.585937 2.535156 2.371094 4.628906 4.785156 5.609375 2.414063.976563 5.152344.71875 7.339844-.691406 8.605469-5.570313 19.800781-5.066407 27.863281 1.265625 8.066406 6.328125 11.21875 17.078125 7.851563 26.761718-3.367188 9.683594-12.511719 16.15625-22.761719 16.117188zm0 0"/></svg>