<svg height="512" viewBox="0 0 64 64" width="512" xmlns="http://www.w3.org/2000/svg"><path d="m7 56v-1h-2v1a3 3 0 0 0 3 3h1v-2h-1a1 1 0 0 1 -1-1z"/><path d="m5 52h2v2h-2z"/><path fill="#ffffff" d="m10 57h2v2h-2z"/><path fill="#ffffff" d="m61.637 32.238.005-.005-5.642-4.72v-16.513a3 3 0 0 0 -3-3v2a1 1 0 0 1 1 1v25.391l-22 14.414-22-14.414v-25.391a1 1 0 0 1 1-1h12v-2h-12a3 3 0 0 0 -3 3v16.513l-5.642 4.72v.005a1 1 0 0 0 -.358.762v24a5.006 5.006 0 0 0 5 5h50a5.006 5.006 0 0 0 5-5v-24a1 1 0 0 0 -.363-.762zm-5.637-2.117 3.325 2.779-3.325 2.181zm-48 4.96-3.325-2.181 3.325-2.779zm52 21.919a3 3 0 0 1 -3 3h-50a3 3 0 0 1 -3-3v-22.149l27.452 17.985a1 1 0 0 0 1.1 0l27.448-17.985z"/><path fill="#ffffff" d="m14.644 22.67a5 5 0 0 0 1.206 9.16 5.035 5.035 0 0 0 1.3.172 4.972 4.972 0 0 0 2.492-.672l3.211-1.854 12.777 13.133a3.017 3.017 0 0 0 4.246 0l1.1-1.1a2.985 2.985 0 0 0 -.405-4.576l-6.007-4.55a4.974 4.974 0 0 1 -1.381-1.383l-1.859-2.782 12.747-1.836a.987.987 0 0 0 .357-.124 5 5 0 0 0 1.83-6.83l-8-13.856a5 5 0 0 0 -6.83-1.83 1 1 0 0 0 -.285.248l-13.2 16.776zm4 6.928a3 3 0 1 1 -3-5.2l2.6-1.5 3 5.2zm12.876 2.514a6.875 6.875 0 0 0 1.881 1.9l6.009 4.551a1 1 0 0 1 .442.735.97.97 0 0 1 -.292.8l-1.1 1.1a1 1 0 0 1 -1.41.008l-11.78-12.115 3.86-.557zm3.185-26.938a2.979 2.979 0 0 1 1.821 1.4l8 13.856a2.962 2.962 0 0 1 -.323 3.44l-10.817-18.738a2.987 2.987 0 0 1 1.319.042zm-2.905 1.213 10.523 18.226-19.188 2.764-3.323-5.754z"/><path fill="#ffffff" d="m43.588 9h6v2h-6z" transform="matrix(.866 -.5 .5 .866 1.241 24.633)"/><path fill="#ffffff" d="m40.49 4.438h6v2h-6z" transform="matrix(.5 -.866 .866 .5 17.039 40.385)"/><path fill="#ffffff" d="m45.99 13.964h6v2h-6z"/></svg>